<mxfile host="65bd71144e">
    <diagram id="cP2cqqdvF_JAm1L9QRL8" name="Page-1">
        <mxGraphModel dx="489" dy="359" grid="1" gridSize="10" guides="1" tooltips="1" connect="1" arrows="1" fold="1" page="1" pageScale="1" pageWidth="850" pageHeight="1100" background="none" math="0" shadow="0">
            <root>
                <mxCell id="0"/>
                <mxCell id="1" parent="0"/>
                <mxCell id="6" value="&lt;p style=&quot;margin:0px;margin-top:6px;text-align:center;&quot;&gt;«subsystem» User Information&lt;br&gt;&lt;/p&gt;&lt;hr&gt;&lt;p style=&quot;margin:0px;margin-left:8px;&quot;&gt;&lt;br&gt;&lt;/p&gt;" style="align=left;overflow=fill;html=1;dropTarget=0;fontColor=#000000;strokeColor=#000000;" parent="1" vertex="1">
                    <mxGeometry x="666" y="640" width="650" height="300" as="geometry"/>
                </mxCell>
                <mxCell id="7" value="" style="shape=component;jettyWidth=8;jettyHeight=4;fontColor=#000000;strokeColor=#000000;" parent="6" vertex="1">
                    <mxGeometry x="1" width="20" height="20" relative="1" as="geometry">
                        <mxPoint x="-24" y="4" as="offset"/>
                    </mxGeometry>
                </mxCell>
                <mxCell id="8" value="&lt;p style=&quot;margin:0px;margin-top:6px;text-align:center;&quot;&gt;«subsystem» Processing&lt;br&gt;&lt;/p&gt;&lt;hr&gt;&lt;p style=&quot;margin:0px;margin-left:8px;&quot;&gt;&lt;br&gt;&lt;/p&gt;" style="align=left;overflow=fill;html=1;dropTarget=0;fontColor=#000000;strokeColor=#000000;" parent="1" vertex="1">
                    <mxGeometry x="810.5" y="160" width="211" height="140" as="geometry"/>
                </mxCell>
                <mxCell id="9" value="" style="shape=component;jettyWidth=8;jettyHeight=4;fontColor=#000000;strokeColor=#000000;" parent="8" vertex="1">
                    <mxGeometry x="1" width="20" height="20" relative="1" as="geometry">
                        <mxPoint x="-24" y="4" as="offset"/>
                    </mxGeometry>
                </mxCell>
                <mxCell id="10" value="&lt;p style=&quot;margin:0px;margin-top:6px;text-align:center;&quot;&gt;«subsystem» Admin and Reporting&lt;br&gt;&lt;/p&gt;&lt;hr&gt;&lt;p style=&quot;margin:0px;margin-left:8px;&quot;&gt;&lt;br&gt;&lt;/p&gt;" style="align=left;overflow=fill;html=1;dropTarget=0;fontColor=#000000;strokeColor=#000000;" parent="1" vertex="1">
                    <mxGeometry x="817.25" y="951" width="446" height="300" as="geometry"/>
                </mxCell>
                <mxCell id="11" value="" style="shape=component;jettyWidth=8;jettyHeight=4;fontColor=#000000;strokeColor=#000000;" parent="10" vertex="1">
                    <mxGeometry x="1" width="20" height="20" relative="1" as="geometry">
                        <mxPoint x="-24" y="4" as="offset"/>
                    </mxGeometry>
                </mxCell>
                <mxCell id="12" value="&lt;p style=&quot;margin:0px;margin-top:6px;text-align:center;&quot;&gt;«subsystem» Personalised Dashboard&lt;br&gt;&lt;/p&gt;&lt;hr&gt;&lt;p style=&quot;margin:0px;margin-left:8px;&quot;&gt;&lt;br&gt;&lt;/p&gt;" style="align=left;overflow=fill;html=1;dropTarget=0;fontColor=#000000;strokeColor=#000000;" parent="1" vertex="1">
                    <mxGeometry x="840.5" y="397" width="402" height="230" as="geometry"/>
                </mxCell>
                <mxCell id="13" value="" style="shape=component;jettyWidth=8;jettyHeight=4;fontColor=#000000;strokeColor=#000000;" parent="12" vertex="1">
                    <mxGeometry x="1" width="20" height="20" relative="1" as="geometry">
                        <mxPoint x="-24" y="4" as="offset"/>
                    </mxGeometry>
                </mxCell>
                <mxCell id="14" value="&lt;p style=&quot;margin:0px;margin-top:6px;text-align:center;&quot;&gt;«subsystem» Feedback&lt;br&gt;&lt;/p&gt;&lt;hr&gt;&lt;p style=&quot;margin:0px;margin-left:8px;&quot;&gt;&lt;br&gt;&lt;/p&gt;" style="align=left;overflow=fill;html=1;dropTarget=0;fontColor=#000000;strokeColor=#000000;" parent="1" vertex="1">
                    <mxGeometry x="340" y="455" width="366" height="152" as="geometry"/>
                </mxCell>
                <mxCell id="15" value="" style="shape=component;jettyWidth=8;jettyHeight=4;fontColor=#000000;strokeColor=#000000;" parent="14" vertex="1">
                    <mxGeometry x="1" width="20" height="20" relative="1" as="geometry">
                        <mxPoint x="-24" y="4" as="offset"/>
                    </mxGeometry>
                </mxCell>
                <mxCell id="16" value="&lt;p style=&quot;margin:0px;margin-top:6px;text-align:center;&quot;&gt;«subsystem» Anonymous Forum&lt;br&gt;&lt;/p&gt;&lt;hr&gt;&lt;p style=&quot;margin:0px;margin-left:8px;&quot;&gt;&lt;br&gt;&lt;/p&gt;" style="align=left;overflow=fill;html=1;dropTarget=0;fontColor=#000000;strokeColor=#000000;" parent="1" vertex="1">
                    <mxGeometry x="310" y="1001" width="366" height="270" as="geometry"/>
                </mxCell>
                <mxCell id="17" value="" style="shape=component;jettyWidth=8;jettyHeight=4;fontColor=#000000;strokeColor=#000000;" parent="16" vertex="1">
                    <mxGeometry x="1" width="20" height="20" relative="1" as="geometry">
                        <mxPoint x="-24" y="4" as="offset"/>
                    </mxGeometry>
                </mxCell>
                <mxCell id="32" value="&lt;font&gt;«Component»&lt;br&gt;&lt;b style=&quot;&quot;&gt;Authentication&lt;/b&gt;&lt;/font&gt;" style="html=1;dropTarget=0;fontColor=#000000;strokeColor=#000000;" parent="1" vertex="1">
                    <mxGeometry x="716" y="680" width="140" height="100" as="geometry"/>
                </mxCell>
                <mxCell id="33" value="" style="shape=module;jettyWidth=8;jettyHeight=4;fontColor=#000000;strokeColor=#000000;" parent="32" vertex="1">
                    <mxGeometry x="1" width="20" height="20" relative="1" as="geometry">
                        <mxPoint x="-27" y="7" as="offset"/>
                    </mxGeometry>
                </mxCell>
                <mxCell id="34" value="&lt;font&gt;«Component»&lt;br&gt;&lt;b&gt;Update Profile&lt;/b&gt;&lt;/font&gt;" style="html=1;dropTarget=0;fontColor=#000000;strokeColor=#000000;" parent="1" vertex="1">
                    <mxGeometry x="941" y="680" width="140" height="100" as="geometry"/>
                </mxCell>
                <mxCell id="35" value="" style="shape=module;jettyWidth=8;jettyHeight=4;fontColor=#000000;strokeColor=#000000;" parent="34" vertex="1">
                    <mxGeometry x="1" width="20" height="20" relative="1" as="geometry">
                        <mxPoint x="-27" y="7" as="offset"/>
                    </mxGeometry>
                </mxCell>
                <mxCell id="36" value="&lt;font&gt;«Component»&lt;br&gt;&lt;b&gt;Forum and Post Draft&lt;/b&gt;&lt;/font&gt;" style="html=1;dropTarget=0;fontColor=#000000;strokeColor=#000000;" parent="1" vertex="1">
                    <mxGeometry x="1159" y="680" width="140" height="100" as="geometry"/>
                </mxCell>
                <mxCell id="37" value="" style="shape=module;jettyWidth=8;jettyHeight=4;fontColor=#000000;strokeColor=#000000;" parent="36" vertex="1">
                    <mxGeometry x="1" width="20" height="20" relative="1" as="geometry">
                        <mxPoint x="-27" y="7" as="offset"/>
                    </mxGeometry>
                </mxCell>
                <mxCell id="38" value="&lt;font&gt;«Component»&lt;br&gt;&lt;b&gt;Update SRC&lt;br&gt;Information Board&lt;/b&gt;&lt;/font&gt;" style="html=1;dropTarget=0;fontColor=#000000;strokeColor=#000000;" parent="1" vertex="1">
                    <mxGeometry x="810.5" y="833" width="140" height="100" as="geometry"/>
                </mxCell>
                <mxCell id="39" value="" style="shape=module;jettyWidth=8;jettyHeight=4;fontColor=#000000;strokeColor=#000000;" parent="38" vertex="1">
                    <mxGeometry x="1" width="20" height="20" relative="1" as="geometry">
                        <mxPoint x="-27" y="7" as="offset"/>
                    </mxGeometry>
                </mxCell>
                <mxCell id="42" value="«Component»&lt;br&gt;&lt;b&gt;Validate Feedback&lt;/b&gt;" style="html=1;dropTarget=0;fontColor=#000000;strokeColor=#000000;" parent="1" vertex="1">
                    <mxGeometry x="847.5" y="197" width="130" height="80" as="geometry"/>
                </mxCell>
                <mxCell id="43" value="" style="shape=module;jettyWidth=8;jettyHeight=4;fontColor=#000000;strokeColor=#000000;" parent="42" vertex="1">
                    <mxGeometry x="1" width="20" height="20" relative="1" as="geometry">
                        <mxPoint x="-27" y="7" as="offset"/>
                    </mxGeometry>
                </mxCell>
                <mxCell id="44" value="&lt;font&gt;«Component»&lt;br&gt;&lt;b&gt;Manage User&lt;/b&gt;&lt;/font&gt;" style="html=1;dropTarget=0;fontColor=#000000;strokeColor=#000000;" parent="1" vertex="1">
                    <mxGeometry x="852" y="994" width="140" height="100" as="geometry"/>
                </mxCell>
                <mxCell id="45" value="" style="shape=module;jettyWidth=8;jettyHeight=4;fontColor=#000000;strokeColor=#000000;" parent="44" vertex="1">
                    <mxGeometry x="1" width="20" height="20" relative="1" as="geometry">
                        <mxPoint x="-27" y="7" as="offset"/>
                    </mxGeometry>
                </mxCell>
                <mxCell id="46" value="&lt;font&gt;«Component»&lt;br&gt;&lt;b style=&quot;&quot;&gt;Post Filtration&lt;/b&gt;&lt;/font&gt;" style="html=1;dropTarget=0;fontColor=#000000;strokeColor=#000000;" parent="1" vertex="1">
                    <mxGeometry x="1074.25" y="994" width="140" height="100" as="geometry"/>
                </mxCell>
                <mxCell id="47" value="" style="shape=module;jettyWidth=8;jettyHeight=4;fontColor=#000000;strokeColor=#000000;" parent="46" vertex="1">
                    <mxGeometry x="1" width="20" height="20" relative="1" as="geometry">
                        <mxPoint x="-27" y="7" as="offset"/>
                    </mxGeometry>
                </mxCell>
                <mxCell id="48" value="&lt;font&gt;«Component»&lt;br&gt;&lt;b&gt;Manage Feedback&lt;/b&gt;&lt;/font&gt;" style="html=1;dropTarget=0;fontColor=#000000;strokeColor=#000000;" parent="1" vertex="1">
                    <mxGeometry x="907.25" y="1127" width="140" height="100" as="geometry"/>
                </mxCell>
                <mxCell id="49" value="" style="shape=module;jettyWidth=8;jettyHeight=4;fontColor=#000000;strokeColor=#000000;" parent="48" vertex="1">
                    <mxGeometry x="1" width="20" height="20" relative="1" as="geometry">
                        <mxPoint x="-27" y="7" as="offset"/>
                    </mxGeometry>
                </mxCell>
                <mxCell id="50" value="&lt;font&gt;«Component»&lt;br&gt;&lt;/font&gt;&lt;b&gt;Manage Report&lt;br&gt;&lt;/b&gt;" style="html=1;dropTarget=0;fontColor=#000000;strokeColor=#000000;" parent="1" vertex="1">
                    <mxGeometry x="1079.25" y="1104" width="140" height="100" as="geometry"/>
                </mxCell>
                <mxCell id="51" value="" style="shape=module;jettyWidth=8;jettyHeight=4;fontColor=#000000;strokeColor=#000000;" parent="50" vertex="1">
                    <mxGeometry x="1" width="20" height="20" relative="1" as="geometry">
                        <mxPoint x="-27" y="7" as="offset"/>
                    </mxGeometry>
                </mxCell>
                <mxCell id="52" value="«Component»&lt;br&gt;&lt;b&gt;Make Post&lt;/b&gt;" style="html=1;dropTarget=0;fontColor=#000000;strokeColor=#000000;" parent="1" vertex="1">
                    <mxGeometry x="882" y="437" width="130" height="80" as="geometry"/>
                </mxCell>
                <mxCell id="53" value="" style="shape=module;jettyWidth=8;jettyHeight=4;fontColor=#000000;strokeColor=#000000;" parent="52" vertex="1">
                    <mxGeometry x="1" width="20" height="20" relative="1" as="geometry">
                        <mxPoint x="-27" y="7" as="offset"/>
                    </mxGeometry>
                </mxCell>
                <mxCell id="54" value="«Component»&lt;br&gt;&lt;b&gt;Edit Post&lt;/b&gt;" style="html=1;dropTarget=0;fontColor=#000000;strokeColor=#000000;" parent="1" vertex="1">
                    <mxGeometry x="1056.5" y="437" width="130" height="80" as="geometry"/>
                </mxCell>
                <mxCell id="55" value="" style="shape=module;jettyWidth=8;jettyHeight=4;fontColor=#000000;strokeColor=#000000;" parent="54" vertex="1">
                    <mxGeometry x="1" width="20" height="20" relative="1" as="geometry">
                        <mxPoint x="-27" y="7" as="offset"/>
                    </mxGeometry>
                </mxCell>
                <mxCell id="56" value="«Component»&lt;br&gt;&lt;b&gt;Delete Post&lt;/b&gt;" style="html=1;dropTarget=0;fontColor=#000000;strokeColor=#000000;" parent="1" vertex="1">
                    <mxGeometry x="1027.5" y="527" width="130" height="80" as="geometry"/>
                </mxCell>
                <mxCell id="57" value="" style="shape=module;jettyWidth=8;jettyHeight=4;fontColor=#000000;strokeColor=#000000;" parent="56" vertex="1">
                    <mxGeometry x="1" width="20" height="20" relative="1" as="geometry">
                        <mxPoint x="-27" y="7" as="offset"/>
                    </mxGeometry>
                </mxCell>
                <mxCell id="58" value="«Component»&lt;br&gt;&lt;b&gt;View Feedback&lt;/b&gt;" style="html=1;dropTarget=0;fontColor=#000000;strokeColor=#000000;" parent="1" vertex="1">
                    <mxGeometry x="360" y="500" width="130" height="80" as="geometry"/>
                </mxCell>
                <mxCell id="59" value="" style="shape=module;jettyWidth=8;jettyHeight=4;fontColor=#000000;strokeColor=#000000;" parent="58" vertex="1">
                    <mxGeometry x="1" width="20" height="20" relative="1" as="geometry">
                        <mxPoint x="-27" y="7" as="offset"/>
                    </mxGeometry>
                </mxCell>
                <mxCell id="60" value="«Component»&lt;br&gt;&lt;b&gt;Submit Feedback&lt;/b&gt;" style="html=1;dropTarget=0;fontColor=#000000;strokeColor=#000000;" parent="1" vertex="1">
                    <mxGeometry x="536" y="501" width="130" height="80" as="geometry"/>
                </mxCell>
                <mxCell id="61" value="" style="shape=module;jettyWidth=8;jettyHeight=4;fontColor=#000000;strokeColor=#000000;" parent="60" vertex="1">
                    <mxGeometry x="1" width="20" height="20" relative="1" as="geometry">
                        <mxPoint x="-27" y="7" as="offset"/>
                    </mxGeometry>
                </mxCell>
                <mxCell id="64" value="«Component»&lt;br&gt;&lt;b&gt;Create Forum&lt;/b&gt;" style="html=1;dropTarget=0;fontColor=#000000;strokeColor=#000000;" parent="1" vertex="1">
                    <mxGeometry x="509.5" y="1038" width="130" height="90" as="geometry"/>
                </mxCell>
                <mxCell id="65" value="" style="shape=module;jettyWidth=8;jettyHeight=4;fontColor=#000000;strokeColor=#000000;" parent="64" vertex="1">
                    <mxGeometry x="1" width="20" height="20" relative="1" as="geometry">
                        <mxPoint x="-27" y="7" as="offset"/>
                    </mxGeometry>
                </mxCell>
                <mxCell id="66" value="«Component»&lt;br&gt;&lt;b&gt;Forum Comments&lt;/b&gt;" style="html=1;dropTarget=0;fontColor=#000000;strokeColor=#000000;" parent="1" vertex="1">
                    <mxGeometry x="340" y="1038" width="130" height="90" as="geometry"/>
                </mxCell>
                <mxCell id="67" value="" style="shape=module;jettyWidth=8;jettyHeight=4;fontColor=#000000;strokeColor=#000000;" parent="66" vertex="1">
                    <mxGeometry x="1" width="20" height="20" relative="1" as="geometry">
                        <mxPoint x="-27" y="7" as="offset"/>
                    </mxGeometry>
                </mxCell>
                <mxCell id="68" value="«Component»&lt;br&gt;&lt;b&gt;Edit Forum&lt;/b&gt;" style="html=1;dropTarget=0;fontColor=#000000;strokeColor=#000000;" parent="1" vertex="1">
                    <mxGeometry x="340" y="1154" width="130" height="80" as="geometry"/>
                </mxCell>
                <mxCell id="69" value="" style="shape=module;jettyWidth=8;jettyHeight=4;fontColor=#000000;strokeColor=#000000;" parent="68" vertex="1">
                    <mxGeometry x="1" width="20" height="20" relative="1" as="geometry">
                        <mxPoint x="-27" y="7" as="offset"/>
                    </mxGeometry>
                </mxCell>
                <mxCell id="73" value="" style="html=1;rounded=0;fontColor=#000000;strokeColor=#000000;" parent="1" vertex="1">
                    <mxGeometry x="656" y="719" width="20" height="20" as="geometry"/>
                </mxCell>
                <mxCell id="74" value="" style="endArrow=none;html=1;rounded=0;align=center;verticalAlign=top;endFill=0;labelBackgroundColor=none;endSize=2;fontColor=#000000;strokeColor=#000000;" parent="1" source="73" target="75" edge="1">
                    <mxGeometry relative="1" as="geometry"/>
                </mxCell>
                <mxCell id="75" value="" style="ellipse;html=1;fontSize=11;align=center;fillColor=none;points=[];aspect=fixed;resizable=0;verticalAlign=bottom;labelPosition=center;verticalLabelPosition=top;flipH=1;fontColor=#000000;strokeColor=#000000;" parent="1" vertex="1">
                    <mxGeometry x="616" y="725" width="8" height="8" as="geometry"/>
                </mxCell>
                <mxCell id="76" value="Login" style="text;html=1;strokeColor=none;fillColor=none;align=center;verticalAlign=middle;whiteSpace=wrap;rounded=0;fontColor=#000000;" parent="1" vertex="1">
                    <mxGeometry x="590" y="700" width="60" height="30" as="geometry"/>
                </mxCell>
                <mxCell id="77" value="&lt;font&gt;«Component»&lt;br&gt;&lt;b&gt;Delete Profile&lt;/b&gt;&lt;/font&gt;" style="html=1;dropTarget=0;fontColor=#000000;strokeColor=#000000;" parent="1" vertex="1">
                    <mxGeometry x="961" y="787" width="140" height="100" as="geometry"/>
                </mxCell>
                <mxCell id="78" value="" style="shape=module;jettyWidth=8;jettyHeight=4;fontColor=#000000;strokeColor=#000000;" parent="77" vertex="1">
                    <mxGeometry x="1" width="20" height="20" relative="1" as="geometry">
                        <mxPoint x="-27" y="7" as="offset"/>
                    </mxGeometry>
                </mxCell>
                <mxCell id="79" value="" style="html=1;verticalAlign=bottom;labelBackgroundColor=none;startArrow=oval;startFill=0;startSize=8;endArrow=none;fontColor=#000000;strokeColor=#000000;" parent="1" edge="1">
                    <mxGeometry x="-0.2" y="10" relative="1" as="geometry">
                        <mxPoint x="688" y="730" as="sourcePoint"/>
                        <mxPoint x="676" y="730" as="targetPoint"/>
                        <mxPoint as="offset"/>
                    </mxGeometry>
                </mxCell>
                <mxCell id="82" value="" style="html=1;rounded=0;fontColor=#000000;strokeColor=#000000;" parent="1" vertex="1">
                    <mxGeometry x="706" y="720" width="21" height="20" as="geometry"/>
                </mxCell>
                <mxCell id="83" value="" style="endArrow=none;html=1;rounded=0;align=center;verticalAlign=top;endFill=0;labelBackgroundColor=none;endSize=2;fontColor=#000000;strokeColor=#000000;" parent="1" source="82" target="84" edge="1">
                    <mxGeometry relative="1" as="geometry"/>
                </mxCell>
                <mxCell id="84" value="" style="shape=requiredInterface;html=1;fontSize=11;align=center;fillColor=none;points=[];aspect=fixed;resizable=0;verticalAlign=bottom;labelPosition=center;verticalLabelPosition=top;flipH=1;fontColor=#000000;direction=west;strokeColor=#000000;" parent="1" vertex="1">
                    <mxGeometry x="689" y="725" width="5" height="10" as="geometry"/>
                </mxCell>
                <mxCell id="87" value="&lt;font style=&quot;font-size: 10px;&quot;&gt;Login Info&lt;/font&gt;" style="text;html=1;strokeColor=none;fillColor=none;align=center;verticalAlign=middle;whiteSpace=wrap;rounded=0;fontColor=#000000;" parent="1" vertex="1">
                    <mxGeometry x="666" y="699" width="50" height="26" as="geometry"/>
                </mxCell>
                <mxCell id="88" value="" style="html=1;rounded=0;fontSize=10;fontColor=#000000;strokeColor=#000000;" parent="1" vertex="1">
                    <mxGeometry x="846" y="725" width="20" height="20" as="geometry"/>
                </mxCell>
                <mxCell id="99" value="" style="endArrow=none;html=1;rounded=0;align=center;verticalAlign=top;endFill=0;labelBackgroundColor=none;endSize=2;fontSize=10;fontColor=#000000;exitX=1;exitY=0.5;exitDx=0;exitDy=0;strokeColor=#000000;" parent="1" source="88" target="90" edge="1">
                    <mxGeometry relative="1" as="geometry">
                        <mxPoint x="884" y="735" as="sourcePoint"/>
                        <mxPoint x="907" y="735" as="targetPoint"/>
                    </mxGeometry>
                </mxCell>
                <mxCell id="90" value="" style="ellipse;html=1;fontSize=11;align=center;fillColor=none;points=[];aspect=fixed;resizable=0;verticalAlign=bottom;labelPosition=center;verticalLabelPosition=top;flipH=1;fontColor=#000000;strokeColor=#000000;" parent="1" vertex="1">
                    <mxGeometry x="894.5" y="731" width="8" height="8" as="geometry"/>
                </mxCell>
                <mxCell id="108" value="" style="html=1;rounded=0;fontSize=10;fontColor=#000000;strokeColor=#000000;" parent="1" vertex="1">
                    <mxGeometry x="931.5" y="725" width="20" height="20" as="geometry"/>
                </mxCell>
                <mxCell id="109" value="" style="endArrow=none;html=1;rounded=0;align=center;verticalAlign=top;endFill=0;labelBackgroundColor=none;endSize=2;fontSize=10;fontColor=#000000;strokeColor=#000000;" parent="1" source="108" target="110" edge="1">
                    <mxGeometry relative="1" as="geometry"/>
                </mxCell>
                <mxCell id="110" value="" style="shape=requiredInterface;html=1;fontSize=11;align=center;fillColor=none;points=[];aspect=fixed;resizable=0;verticalAlign=bottom;labelPosition=center;verticalLabelPosition=top;flipH=1;fontColor=#000000;direction=west;strokeColor=#000000;" parent="1" vertex="1">
                    <mxGeometry x="900.5" y="730" width="5" height="10" as="geometry"/>
                </mxCell>
                <mxCell id="111" value="&lt;font style=&quot;font-size: 9px;&quot;&gt;User Type&lt;/font&gt;" style="text;html=1;strokeColor=none;fillColor=none;align=center;verticalAlign=middle;whiteSpace=wrap;rounded=0;fontColor=#000000;" parent="1" vertex="1">
                    <mxGeometry x="875" y="705" width="50" height="26" as="geometry"/>
                </mxCell>
                <mxCell id="112" value="" style="endArrow=none;html=1;rounded=0;align=center;verticalAlign=top;endFill=0;labelBackgroundColor=none;endSize=2;fontSize=10;fontColor=#000000;exitX=1;exitY=0.75;exitDx=0;exitDy=0;strokeColor=#000000;" parent="1" source="88" target="113" edge="1">
                    <mxGeometry relative="1" as="geometry">
                        <mxPoint x="863.5" y="745" as="sourcePoint"/>
                        <mxPoint x="904.5" y="745" as="targetPoint"/>
                    </mxGeometry>
                </mxCell>
                <mxCell id="113" value="" style="ellipse;html=1;fontSize=11;align=center;fillColor=none;points=[];aspect=fixed;resizable=0;verticalAlign=bottom;labelPosition=center;verticalLabelPosition=top;flipH=1;fontColor=#000000;strokeColor=#000000;" parent="1" vertex="1">
                    <mxGeometry x="896" y="769" width="8" height="8" as="geometry"/>
                </mxCell>
                <mxCell id="114" value="" style="html=1;rounded=0;fontSize=10;fontColor=#000000;strokeColor=#000000;" parent="1" vertex="1">
                    <mxGeometry x="951.5" y="811" width="20" height="20" as="geometry"/>
                </mxCell>
                <mxCell id="115" value="" style="endArrow=none;html=1;rounded=0;align=center;verticalAlign=top;endFill=0;labelBackgroundColor=none;endSize=2;fontSize=10;fontColor=#000000;exitX=0.005;exitY=0.158;exitDx=0;exitDy=0;exitPerimeter=0;strokeColor=#000000;" parent="1" source="114" target="116" edge="1">
                    <mxGeometry relative="1" as="geometry"/>
                </mxCell>
                <mxCell id="116" value="" style="shape=requiredInterface;html=1;fontSize=11;align=center;fillColor=none;points=[];aspect=fixed;resizable=0;verticalAlign=bottom;labelPosition=center;verticalLabelPosition=top;flipH=1;fontColor=#000000;direction=west;rotation=45;strokeColor=#000000;" parent="1" vertex="1">
                    <mxGeometry x="900.5" y="771" width="5" height="10" as="geometry"/>
                </mxCell>
                <mxCell id="117" value="&lt;font style=&quot;font-size: 9px;&quot;&gt;User Type&lt;/font&gt;" style="text;html=1;strokeColor=none;fillColor=none;align=center;verticalAlign=middle;whiteSpace=wrap;rounded=0;fontColor=#000000;" parent="1" vertex="1">
                    <mxGeometry x="891" y="748" width="50" height="26" as="geometry"/>
                </mxCell>
                <mxCell id="127" value="" style="endArrow=none;html=1;rounded=0;align=center;verticalAlign=top;endFill=0;labelBackgroundColor=none;endSize=2;fontSize=10;fontColor=#000000;exitX=0.854;exitY=1.006;exitDx=0;exitDy=0;exitPerimeter=0;strokeColor=#000000;" parent="1" source="88" target="128" edge="1">
                    <mxGeometry relative="1" as="geometry">
                        <mxPoint x="796" y="760" as="sourcePoint"/>
                        <mxPoint x="834.5" y="765" as="targetPoint"/>
                    </mxGeometry>
                </mxCell>
                <mxCell id="128" value="" style="ellipse;html=1;fontSize=11;align=center;fillColor=none;points=[];aspect=fixed;resizable=0;verticalAlign=bottom;labelPosition=center;verticalLabelPosition=top;flipH=1;fontColor=#000000;strokeColor=#000000;" parent="1" vertex="1">
                    <mxGeometry x="883" y="792" width="8" height="8" as="geometry"/>
                </mxCell>
                <mxCell id="129" value="" style="html=1;rounded=0;fontSize=10;fontColor=#000000;strokeColor=#000000;" parent="1" vertex="1">
                    <mxGeometry x="891.5" y="820" width="20" height="20" as="geometry"/>
                </mxCell>
                <mxCell id="130" value="" style="endArrow=none;html=1;rounded=0;align=center;verticalAlign=top;endFill=0;labelBackgroundColor=none;endSize=2;fontSize=10;fontColor=#000000;exitX=0.5;exitY=0;exitDx=0;exitDy=0;strokeColor=#000000;" parent="1" source="129" target="131" edge="1">
                    <mxGeometry relative="1" as="geometry"/>
                </mxCell>
                <mxCell id="131" value="" style="shape=requiredInterface;html=1;fontSize=11;align=center;fillColor=none;points=[];aspect=fixed;resizable=0;verticalAlign=bottom;labelPosition=center;verticalLabelPosition=top;flipH=1;fontColor=#000000;direction=west;rotation=60;strokeColor=#000000;" parent="1" vertex="1">
                    <mxGeometry x="886.5" y="795" width="5" height="10" as="geometry"/>
                </mxCell>
                <mxCell id="132" value="&lt;font style=&quot;font-size: 9px;&quot;&gt;User Type&lt;/font&gt;" style="text;html=1;strokeColor=none;fillColor=none;align=center;verticalAlign=middle;whiteSpace=wrap;rounded=0;fontColor=#000000;" parent="1" vertex="1">
                    <mxGeometry x="833" y="783" width="50" height="26" as="geometry"/>
                </mxCell>
                <mxCell id="133" value="" style="html=1;rounded=0;fontSize=9;fontColor=#000000;strokeColor=#000000;" parent="1" vertex="1">
                    <mxGeometry x="1072" y="725" width="20" height="20" as="geometry"/>
                </mxCell>
                <mxCell id="134" value="" style="endArrow=none;html=1;rounded=0;align=center;verticalAlign=top;endFill=0;labelBackgroundColor=none;endSize=2;fontSize=9;fontColor=#000000;strokeColor=#000000;" parent="1" source="133" target="135" edge="1">
                    <mxGeometry relative="1" as="geometry"/>
                </mxCell>
                <mxCell id="135" value="" style="ellipse;html=1;fontSize=11;align=center;fillColor=none;points=[];aspect=fixed;resizable=0;verticalAlign=bottom;labelPosition=center;verticalLabelPosition=top;flipH=1;fontColor=#000000;strokeColor=#000000;" parent="1" vertex="1">
                    <mxGeometry x="1113" y="731" width="8" height="8" as="geometry"/>
                </mxCell>
                <mxCell id="136" value="" style="html=1;rounded=0;fontSize=9;fontColor=#000000;strokeColor=#000000;" parent="1" vertex="1">
                    <mxGeometry x="1146" y="725" width="20" height="20" as="geometry"/>
                </mxCell>
                <mxCell id="138" value="" style="endArrow=none;html=1;rounded=0;align=center;verticalAlign=top;endFill=0;labelBackgroundColor=none;endSize=2;fontSize=10;fontColor=#000000;strokeColor=#000000;" parent="1" target="139" edge="1">
                    <mxGeometry relative="1" as="geometry">
                        <mxPoint x="1146" y="735" as="sourcePoint"/>
                    </mxGeometry>
                </mxCell>
                <mxCell id="139" value="" style="shape=requiredInterface;html=1;fontSize=11;align=center;fillColor=none;points=[];aspect=fixed;resizable=0;verticalAlign=bottom;labelPosition=center;verticalLabelPosition=top;flipH=1;fontColor=#000000;direction=west;strokeColor=#000000;" parent="1" vertex="1">
                    <mxGeometry x="1119" y="730" width="5" height="10" as="geometry"/>
                </mxCell>
                <mxCell id="140" value="&lt;font style=&quot;font-size: 9px;&quot;&gt;Profile Info&lt;/font&gt;" style="text;html=1;strokeColor=none;fillColor=none;align=center;verticalAlign=middle;whiteSpace=wrap;rounded=0;fontColor=#000000;" parent="1" vertex="1">
                    <mxGeometry x="1096.5" y="708" width="50" height="26" as="geometry"/>
                </mxCell>
                <mxCell id="141" value="" style="html=1;rounded=0;fontSize=9;fontColor=#000000;strokeColor=#000000;" parent="1" vertex="1">
                    <mxGeometry x="779.25" y="769" width="20" height="20" as="geometry"/>
                </mxCell>
                <mxCell id="142" value="" style="endArrow=none;html=1;rounded=0;align=center;verticalAlign=top;endFill=0;labelBackgroundColor=none;endSize=2;fontSize=9;fontColor=#000000;strokeColor=#000000;" parent="1" source="141" target="143" edge="1">
                    <mxGeometry relative="1" as="geometry"/>
                </mxCell>
                <mxCell id="143" value="" style="ellipse;html=1;fontSize=11;align=center;fillColor=none;points=[];aspect=fixed;resizable=0;verticalAlign=bottom;labelPosition=center;verticalLabelPosition=top;flipH=1;fontColor=#000000;strokeColor=#000000;" parent="1" vertex="1">
                    <mxGeometry x="785.25" y="855" width="8" height="8" as="geometry"/>
                </mxCell>
                <mxCell id="144" value="" style="html=1;rounded=0;fontSize=9;fontColor=#000000;strokeColor=#000000;" parent="1" vertex="1">
                    <mxGeometry x="779.25" y="931" width="20" height="20" as="geometry"/>
                </mxCell>
                <mxCell id="145" value="" style="endArrow=none;html=1;rounded=0;align=center;verticalAlign=top;endFill=0;labelBackgroundColor=none;endSize=2;fontSize=9;fontColor=#000000;strokeColor=#000000;" parent="1" source="144" target="146" edge="1">
                    <mxGeometry relative="1" as="geometry"/>
                </mxCell>
                <mxCell id="146" value="" style="ellipse;html=1;fontSize=11;align=center;fillColor=none;points=[];aspect=fixed;resizable=0;verticalAlign=bottom;labelPosition=center;verticalLabelPosition=top;flipH=1;fontColor=#000000;strokeColor=#000000;" parent="1" vertex="1">
                    <mxGeometry x="785.25" y="984" width="8" height="8" as="geometry"/>
                </mxCell>
                <mxCell id="147" value="" style="endArrow=none;html=1;rounded=0;align=center;verticalAlign=top;endFill=0;labelBackgroundColor=none;endSize=2;fontSize=9;fontColor=#000000;entryX=0.5;entryY=0;entryDx=0;entryDy=0;strokeColor=#000000;" parent="1" target="144" edge="1">
                    <mxGeometry relative="1" as="geometry">
                        <mxPoint x="789.15" y="863" as="sourcePoint"/>
                        <mxPoint x="789.25" y="922" as="targetPoint"/>
                    </mxGeometry>
                </mxCell>
                <mxCell id="151" value="" style="html=1;rounded=0;fontSize=9;fontColor=#000000;strokeColor=#000000;" parent="1" vertex="1">
                    <mxGeometry x="808.25" y="1032" width="20" height="20" as="geometry"/>
                </mxCell>
                <mxCell id="154" value="" style="html=1;rounded=0;fontSize=9;fontColor=#000000;strokeColor=#000000;" parent="1" vertex="1">
                    <mxGeometry x="873.5" y="467" width="19" height="20" as="geometry"/>
                </mxCell>
                <mxCell id="155" value="" style="endArrow=none;html=1;rounded=0;align=center;verticalAlign=top;endFill=0;labelBackgroundColor=none;endSize=2;fontSize=9;fontColor=#000000;entryX=0.073;entryY=0.486;entryDx=0;entryDy=0;entryPerimeter=0;strokeColor=#000000;" parent="1" source="154" target="159" edge="1">
                    <mxGeometry relative="1" as="geometry">
                        <mxPoint x="877" y="477" as="targetPoint"/>
                    </mxGeometry>
                </mxCell>
                <mxCell id="158" value="" style="endArrow=none;html=1;rounded=0;align=center;verticalAlign=top;endFill=0;labelBackgroundColor=none;endSize=2;fontSize=9;fontColor=#000000;exitX=1;exitY=0.5;exitDx=0;exitDy=0;strokeColor=#000000;" parent="1" source="205" target="159" edge="1">
                    <mxGeometry relative="1" as="geometry">
                        <mxPoint x="851.5" y="477" as="sourcePoint"/>
                    </mxGeometry>
                </mxCell>
                <mxCell id="159" value="" style="ellipse;html=1;fontSize=11;align=center;fillColor=none;points=[];aspect=fixed;resizable=0;verticalAlign=bottom;labelPosition=center;verticalLabelPosition=top;flipH=1;fontColor=#000000;strokeColor=#000000;" parent="1" vertex="1">
                    <mxGeometry x="857.5" y="473" width="8" height="8" as="geometry"/>
                </mxCell>
                <mxCell id="162" value="" style="endArrow=none;html=1;rounded=0;align=center;verticalAlign=top;endFill=0;labelBackgroundColor=none;endSize=2;fontSize=9;fontColor=#000000;exitX=1;exitY=0.5;exitDx=0;exitDy=0;strokeColor=#000000;" parent="1" source="164" target="163" edge="1">
                    <mxGeometry relative="1" as="geometry">
                        <mxPoint x="1057.5" y="485.87531609492055" as="sourcePoint"/>
                    </mxGeometry>
                </mxCell>
                <mxCell id="163" value="" style="ellipse;html=1;fontSize=11;align=center;fillColor=none;points=[];aspect=fixed;resizable=0;verticalAlign=bottom;labelPosition=center;verticalLabelPosition=top;flipH=1;fontColor=#000000;strokeColor=#000000;" parent="1" vertex="1">
                    <mxGeometry x="1030" y="473" width="8" height="8" as="geometry"/>
                </mxCell>
                <mxCell id="164" value="" style="html=1;rounded=0;fontSize=9;fontColor=#000000;strokeColor=#000000;" parent="1" vertex="1">
                    <mxGeometry x="1002.5" y="467" width="19" height="20" as="geometry"/>
                </mxCell>
                <mxCell id="166" value="" style="endArrow=none;html=1;rounded=0;align=center;verticalAlign=top;endFill=0;labelBackgroundColor=none;endSize=2;fontSize=9;fontColor=#000000;exitX=-0.015;exitY=0.508;exitDx=0;exitDy=0;exitPerimeter=0;startArrow=none;entryX=-0.034;entryY=0.516;entryDx=0;entryDy=0;entryPerimeter=0;strokeColor=#000000;" parent="1" source="165" target="165" edge="1">
                    <mxGeometry relative="1" as="geometry">
                        <mxPoint x="1062.5" y="477" as="sourcePoint"/>
                        <mxPoint x="1073.5" y="476.96000000000004" as="targetPoint"/>
                    </mxGeometry>
                </mxCell>
                <mxCell id="167" value="" style="endArrow=none;html=1;rounded=0;align=center;verticalAlign=top;endFill=0;labelBackgroundColor=none;endSize=2;fontSize=9;fontColor=#000000;exitX=0.5;exitY=1;exitDx=0;exitDy=0;strokeColor=#000000;" parent="1" source="169" target="168" edge="1">
                    <mxGeometry relative="1" as="geometry">
                        <mxPoint x="988" y="525.8753160949205" as="sourcePoint"/>
                    </mxGeometry>
                </mxCell>
                <mxCell id="168" value="" style="ellipse;html=1;fontSize=11;align=center;fillColor=none;points=[];aspect=fixed;resizable=0;verticalAlign=bottom;labelPosition=center;verticalLabelPosition=top;flipH=1;fontColor=#000000;strokeColor=#000000;" parent="1" vertex="1">
                    <mxGeometry x="975.5" y="563" width="8" height="8" as="geometry"/>
                </mxCell>
                <mxCell id="169" value="" style="html=1;rounded=0;fontSize=9;fontColor=#000000;strokeColor=#000000;" parent="1" vertex="1">
                    <mxGeometry x="970" y="507" width="19" height="20" as="geometry"/>
                </mxCell>
                <mxCell id="170" value="" style="html=1;rounded=0;fontSize=9;fontColor=#000000;strokeColor=#000000;" parent="1" vertex="1">
                    <mxGeometry x="1017" y="557" width="19" height="20" as="geometry"/>
                </mxCell>
                <mxCell id="171" value="" style="endArrow=none;html=1;rounded=0;align=center;verticalAlign=top;endFill=0;labelBackgroundColor=none;endSize=2;fontSize=9;fontColor=#000000;exitX=0.049;exitY=0.516;exitDx=0;exitDy=0;exitPerimeter=0;entryX=0;entryY=0.5;entryDx=0;entryDy=0;strokeColor=#000000;" parent="1" source="168" target="170" edge="1">
                    <mxGeometry relative="1" as="geometry">
                        <mxPoint x="993" y="517" as="sourcePoint"/>
                        <mxPoint x="1004" y="516.9599999999999" as="targetPoint"/>
                    </mxGeometry>
                </mxCell>
                <mxCell id="173" value="" style="endArrow=none;html=1;rounded=0;align=center;verticalAlign=top;endFill=0;labelBackgroundColor=none;endSize=2;fontSize=9;fontColor=#FFFFFF;exitX=0.5;exitY=0;exitDx=0;exitDy=0;strokeColor=#FFFFFF;" parent="1" source="172" edge="1">
                    <mxGeometry relative="1" as="geometry">
                        <mxPoint x="922.1575959488664" y="422.9455756931975" as="targetPoint"/>
                    </mxGeometry>
                </mxCell>
                <mxCell id="176" value="" style="endArrow=none;html=1;rounded=0;align=center;verticalAlign=top;endFill=0;labelBackgroundColor=none;endSize=2;fontSize=9;fontColor=#000000;exitX=0.5;exitY=0;exitDx=0;exitDy=0;strokeColor=#000000;" parent="1" source="268" target="177" edge="1">
                    <mxGeometry relative="1" as="geometry">
                        <mxPoint x="629.2500000000001" y="326.95550745289785" as="sourcePoint"/>
                    </mxGeometry>
                </mxCell>
                <mxCell id="177" value="" style="ellipse;html=1;fontSize=11;align=center;fillColor=none;points=[];aspect=fixed;resizable=0;verticalAlign=bottom;labelPosition=center;verticalLabelPosition=top;flipH=1;fontColor=#000000;strokeColor=#000000;" parent="1" vertex="1">
                    <mxGeometry x="623" y="329" width="8" height="8" as="geometry"/>
                </mxCell>
                <mxCell id="178" value="" style="endArrow=none;html=1;rounded=0;align=center;verticalAlign=top;endFill=0;labelBackgroundColor=none;endSize=2;fontSize=9;fontColor=#FFFFFF;exitX=0.496;exitY=-0.003;exitDx=0;exitDy=0;exitPerimeter=0;entryX=0.5;entryY=1;entryDx=0;entryDy=0;strokeColor=#FFFFFF;" parent="1" source="174" edge="1">
                    <mxGeometry relative="1" as="geometry">
                        <mxPoint x="921.4000000000001" y="483" as="sourcePoint"/>
                        <mxPoint x="921.5" y="409" as="targetPoint"/>
                    </mxGeometry>
                </mxCell>
                <mxCell id="179" value="" style="html=1;rounded=0;fontSize=9;fontColor=#000000;strokeColor=#000000;" parent="1" vertex="1">
                    <mxGeometry x="794.75" y="227" width="20" height="20" as="geometry"/>
                </mxCell>
                <mxCell id="181" value="" style="html=1;rounded=0;fontSize=9;fontColor=#000000;strokeColor=#000000;" parent="1" vertex="1">
                    <mxGeometry x="834.75" y="227" width="19" height="20" as="geometry"/>
                </mxCell>
                <mxCell id="182" value="" style="endArrow=none;html=1;rounded=0;align=center;verticalAlign=top;endFill=0;labelBackgroundColor=none;endSize=2;fontSize=9;fontColor=#000000;entryX=-0.005;entryY=0.505;entryDx=0;entryDy=0;entryPerimeter=0;strokeColor=#000000;" parent="1" source="181" target="185" edge="1">
                    <mxGeometry relative="1" as="geometry">
                        <mxPoint x="853.75" y="237" as="targetPoint"/>
                    </mxGeometry>
                </mxCell>
                <mxCell id="184" value="" style="endArrow=none;html=1;rounded=0;align=center;verticalAlign=top;endFill=0;labelBackgroundColor=none;endSize=2;fontSize=9;fontColor=#000000;exitX=1;exitY=0.5;exitDx=0;exitDy=0;strokeColor=#000000;" parent="1" source="179" target="185" edge="1">
                    <mxGeometry relative="1" as="geometry">
                        <mxPoint x="835.75" y="237" as="sourcePoint"/>
                    </mxGeometry>
                </mxCell>
                <mxCell id="185" value="" style="ellipse;html=1;fontSize=11;align=center;fillColor=none;points=[];aspect=fixed;resizable=0;verticalAlign=bottom;labelPosition=center;verticalLabelPosition=top;flipH=1;fontColor=#000000;strokeColor=#000000;" parent="1" vertex="1">
                    <mxGeometry x="821.25" y="233" width="8" height="8" as="geometry"/>
                </mxCell>
                <mxCell id="186" value="&lt;font style=&quot;font-size: 9px;&quot;&gt;Feedback List&lt;/font&gt;" style="text;html=1;strokeColor=none;fillColor=none;align=center;verticalAlign=middle;whiteSpace=wrap;rounded=0;fontColor=#000000;" parent="1" vertex="1">
                    <mxGeometry x="557" y="320" width="65" height="26" as="geometry"/>
                </mxCell>
                <mxCell id="187" value="" style="endArrow=none;html=1;rounded=0;align=center;verticalAlign=top;endFill=0;labelBackgroundColor=none;endSize=2;fontSize=9;fontColor=#000000;entryX=1.05;entryY=0.517;entryDx=0;entryDy=0;entryPerimeter=0;exitX=0;exitY=0.5;exitDx=0;exitDy=0;strokeColor=#000000;" parent="1" source="151" target="188" edge="1">
                    <mxGeometry relative="1" as="geometry">
                        <mxPoint x="793.25" y="1042" as="sourcePoint"/>
                        <Array as="points">
                            <mxPoint x="789.25" y="1042"/>
                        </Array>
                    </mxGeometry>
                </mxCell>
                <mxCell id="188" value="" style="shape=requiredInterface;html=1;fontSize=11;align=center;fillColor=none;points=[];aspect=fixed;resizable=0;verticalAlign=bottom;labelPosition=center;verticalLabelPosition=top;flipH=1;fontColor=#000000;rotation=-90;strokeColor=#000000;" parent="1" vertex="1">
                    <mxGeometry x="786.75" y="987" width="5" height="10" as="geometry"/>
                </mxCell>
                <mxCell id="189" value="&lt;font style=&quot;font-size: 9px;&quot;&gt;User Type&lt;/font&gt;" style="text;html=1;strokeColor=none;fillColor=none;align=center;verticalAlign=middle;whiteSpace=wrap;rounded=0;fontColor=#000000;" parent="1" vertex="1">
                    <mxGeometry x="734.75" y="971" width="50" height="26" as="geometry"/>
                </mxCell>
                <mxCell id="190" value="" style="endArrow=none;html=1;rounded=0;align=center;verticalAlign=top;endFill=0;labelBackgroundColor=none;endSize=2;fontSize=9;fontColor=#000000;exitX=-0.015;exitY=0.508;exitDx=0;exitDy=0;exitPerimeter=0;strokeColor=#000000;" parent="1" source="163" target="165" edge="1">
                    <mxGeometry relative="1" as="geometry">
                        <mxPoint x="1038.12" y="477.0640000000001" as="sourcePoint"/>
                        <mxPoint x="1073.5" y="476.96000000000004" as="targetPoint"/>
                    </mxGeometry>
                </mxCell>
                <mxCell id="165" value="" style="html=1;rounded=0;fontSize=9;fontColor=#000000;strokeColor=#000000;" parent="1" vertex="1">
                    <mxGeometry x="1048" y="467" width="19" height="20" as="geometry"/>
                </mxCell>
                <mxCell id="193" value="" style="shape=requiredInterface;html=1;fontSize=11;align=center;fillColor=none;points=[];aspect=fixed;resizable=0;verticalAlign=bottom;labelPosition=center;verticalLabelPosition=top;flipH=1;fontColor=#000000;rotation=90;strokeColor=#000000;" parent="1" vertex="1">
                    <mxGeometry x="624.5" y="324" width="5" height="10" as="geometry"/>
                </mxCell>
                <mxCell id="197" value="" style="html=1;rounded=0;fontSize=9;fontColor=#000000;strokeColor=#000000;" parent="1" vertex="1">
                    <mxGeometry x="802.25" y="628" width="20" height="20" as="geometry"/>
                </mxCell>
                <mxCell id="198" value="" style="endArrow=none;html=1;rounded=0;align=center;verticalAlign=top;endFill=0;labelBackgroundColor=none;endSize=2;fontSize=9;fontColor=#000000;strokeColor=#000000;" parent="1" source="197" target="199" edge="1">
                    <mxGeometry relative="1" as="geometry"/>
                </mxCell>
                <mxCell id="199" value="" style="ellipse;html=1;fontSize=11;align=center;fillColor=none;points=[];aspect=fixed;resizable=0;verticalAlign=bottom;labelPosition=center;verticalLabelPosition=top;flipH=1;fontColor=#000000;strokeColor=#000000;" parent="1" vertex="1">
                    <mxGeometry x="808.25" y="655" width="8" height="8" as="geometry"/>
                </mxCell>
                <mxCell id="200" value="" style="html=1;rounded=0;fontSize=9;fontColor=#000000;strokeColor=#000000;" parent="1" vertex="1">
                    <mxGeometry x="802.25" y="670" width="20" height="20" as="geometry"/>
                </mxCell>
                <mxCell id="201" value="" style="endArrow=none;html=1;rounded=0;align=center;verticalAlign=top;endFill=0;labelBackgroundColor=none;endSize=2;fontSize=9;fontColor=#000000;entryX=0.5;entryY=0;entryDx=0;entryDy=0;exitX=0.498;exitY=0.997;exitDx=0;exitDy=0;exitPerimeter=0;strokeColor=#000000;" parent="1" source="199" target="200" edge="1">
                    <mxGeometry relative="1" as="geometry">
                        <mxPoint x="812.15" y="602" as="sourcePoint"/>
                        <mxPoint x="812.25" y="661" as="targetPoint"/>
                    </mxGeometry>
                </mxCell>
                <mxCell id="203" value="" style="endArrow=none;html=1;rounded=0;align=center;verticalAlign=top;endFill=0;labelBackgroundColor=none;endSize=2;fontSize=9;fontColor=#000000;entryX=0.501;entryY=0.995;entryDx=0;entryDy=0;entryPerimeter=0;exitX=0.5;exitY=0;exitDx=0;exitDy=0;strokeColor=#000000;" parent="1" source="197" target="204" edge="1">
                    <mxGeometry relative="1" as="geometry">
                        <mxPoint x="811.25" y="549" as="sourcePoint"/>
                    </mxGeometry>
                </mxCell>
                <mxCell id="204" value="" style="ellipse;html=1;fontSize=11;align=center;fillColor=none;points=[];aspect=fixed;resizable=0;verticalAlign=bottom;labelPosition=center;verticalLabelPosition=top;flipH=1;fontColor=#000000;strokeColor=#000000;" parent="1" vertex="1">
                    <mxGeometry x="808.25" y="604" width="8" height="8" as="geometry"/>
                </mxCell>
                <mxCell id="205" value="" style="html=1;rounded=0;fontSize=9;fontColor=#000000;strokeColor=#000000;" parent="1" vertex="1">
                    <mxGeometry x="830" y="467" width="20" height="20" as="geometry"/>
                </mxCell>
                <mxCell id="206" value="" style="endArrow=none;html=1;rounded=0;align=center;verticalAlign=top;endFill=0;labelBackgroundColor=none;endSize=2;fontSize=9;fontColor=#000000;entryX=1.05;entryY=0.517;entryDx=0;entryDy=0;entryPerimeter=0;exitX=0;exitY=0.5;exitDx=0;exitDy=0;strokeColor=#000000;" parent="1" source="205" target="207" edge="1">
                    <mxGeometry relative="1" as="geometry">
                        <mxPoint x="813.75" y="440" as="sourcePoint"/>
                        <Array as="points">
                            <mxPoint x="812" y="477"/>
                        </Array>
                    </mxGeometry>
                </mxCell>
                <mxCell id="207" value="" style="shape=requiredInterface;html=1;fontSize=11;align=center;fillColor=none;points=[];aspect=fixed;resizable=0;verticalAlign=bottom;labelPosition=center;verticalLabelPosition=top;flipH=1;fontColor=#000000;rotation=90;strokeColor=#000000;" parent="1" vertex="1">
                    <mxGeometry x="809.75" y="598" width="5" height="10" as="geometry"/>
                </mxCell>
                <mxCell id="210" value="&lt;font style=&quot;font-size: 9px;&quot;&gt;User Type&lt;/font&gt;" style="text;html=1;strokeColor=none;fillColor=none;align=center;verticalAlign=middle;whiteSpace=wrap;rounded=0;fontColor=#000000;" parent="1" vertex="1">
                    <mxGeometry x="758.25" y="590" width="50" height="26" as="geometry"/>
                </mxCell>
                <mxCell id="211" value="" style="html=1;rounded=0;fontSize=9;fontColor=#000000;strokeColor=#000000;" parent="1" vertex="1">
                    <mxGeometry x="845.5" y="1032" width="19" height="20" as="geometry"/>
                </mxCell>
                <mxCell id="212" value="" style="endArrow=none;html=1;rounded=0;align=center;verticalAlign=top;endFill=0;labelBackgroundColor=none;endSize=2;fontSize=9;fontColor=#000000;entryX=0.073;entryY=0.486;entryDx=0;entryDy=0;entryPerimeter=0;strokeColor=#000000;" parent="1" source="211" target="214" edge="1">
                    <mxGeometry relative="1" as="geometry">
                        <mxPoint x="842.75" y="1065" as="targetPoint"/>
                    </mxGeometry>
                </mxCell>
                <mxCell id="213" value="" style="endArrow=none;html=1;rounded=0;align=center;verticalAlign=top;endFill=0;labelBackgroundColor=none;endSize=2;fontSize=9;fontColor=#000000;exitX=1;exitY=0.5;exitDx=0;exitDy=0;strokeColor=#000000;" parent="1" source="151" target="214" edge="1">
                    <mxGeometry relative="1" as="geometry">
                        <mxPoint x="826.5" y="1045" as="sourcePoint"/>
                    </mxGeometry>
                </mxCell>
                <mxCell id="214" value="" style="ellipse;html=1;fontSize=11;align=center;fillColor=none;points=[];aspect=fixed;resizable=0;verticalAlign=bottom;labelPosition=center;verticalLabelPosition=top;flipH=1;fontColor=#000000;strokeColor=#000000;" parent="1" vertex="1">
                    <mxGeometry x="833.5" y="1038" width="8" height="8" as="geometry"/>
                </mxCell>
                <mxCell id="218" value="" style="endArrow=none;html=1;rounded=0;align=center;verticalAlign=top;endFill=0;labelBackgroundColor=none;endSize=2;fontSize=9;fontColor=#000000;exitX=1;exitY=0.5;exitDx=0;exitDy=0;strokeColor=#000000;" parent="1" source="220" target="219" edge="1">
                    <mxGeometry relative="1" as="geometry">
                        <mxPoint x="1039.25" y="1052.8753160949204" as="sourcePoint"/>
                    </mxGeometry>
                </mxCell>
                <mxCell id="219" value="" style="ellipse;html=1;fontSize=11;align=center;fillColor=none;points=[];aspect=fixed;resizable=0;verticalAlign=bottom;labelPosition=center;verticalLabelPosition=top;flipH=1;fontColor=#000000;strokeColor=#000000;" parent="1" vertex="1">
                    <mxGeometry x="1030.25" y="1040" width="8" height="8" as="geometry"/>
                </mxCell>
                <mxCell id="220" value="" style="html=1;rounded=0;fontSize=9;fontColor=#000000;strokeColor=#000000;" parent="1" vertex="1">
                    <mxGeometry x="984.25" y="1034" width="19" height="20" as="geometry"/>
                </mxCell>
                <mxCell id="221" value="" style="endArrow=none;html=1;rounded=0;align=center;verticalAlign=top;endFill=0;labelBackgroundColor=none;endSize=2;fontSize=9;fontColor=#000000;exitX=-0.015;exitY=0.508;exitDx=0;exitDy=0;exitPerimeter=0;strokeColor=#000000;" parent="1" source="219" target="222" edge="1">
                    <mxGeometry relative="1" as="geometry">
                        <mxPoint x="1019.8699999999999" y="1044.064" as="sourcePoint"/>
                        <mxPoint x="1055.25" y="1043.96" as="targetPoint"/>
                    </mxGeometry>
                </mxCell>
                <mxCell id="222" value="" style="html=1;rounded=0;fontSize=9;fontColor=#000000;strokeColor=#000000;" parent="1" vertex="1">
                    <mxGeometry x="1064.75" y="1034" width="19" height="20" as="geometry"/>
                </mxCell>
                <mxCell id="223" value="" style="endArrow=none;html=1;rounded=0;align=center;verticalAlign=top;endFill=0;labelBackgroundColor=none;endSize=2;fontSize=9;fontColor=#000000;exitX=1;exitY=0.75;exitDx=0;exitDy=0;strokeColor=#000000;" parent="1" source="220" target="224" edge="1">
                    <mxGeometry relative="1" as="geometry">
                        <mxPoint x="1006.75" y="1174" as="sourcePoint"/>
                    </mxGeometry>
                </mxCell>
                <mxCell id="224" value="" style="ellipse;html=1;fontSize=11;align=center;fillColor=none;points=[];aspect=fixed;resizable=0;verticalAlign=bottom;labelPosition=center;verticalLabelPosition=top;flipH=1;fontColor=#000000;strokeColor=#000000;" parent="1" vertex="1">
                    <mxGeometry x="1038.25" y="1104" width="8" height="8" as="geometry"/>
                </mxCell>
                <mxCell id="225" value="" style="endArrow=none;html=1;rounded=0;align=center;verticalAlign=top;endFill=0;labelBackgroundColor=none;endSize=2;fontSize=9;fontColor=#000000;exitX=0.22;exitY=0.9;exitDx=0;exitDy=0;exitPerimeter=0;entryX=-0.01;entryY=0.142;entryDx=0;entryDy=0;entryPerimeter=0;strokeColor=#000000;" parent="1" source="224" target="226" edge="1">
                    <mxGeometry relative="1" as="geometry">
                        <mxPoint x="1023.3699999999999" y="1174.064" as="sourcePoint"/>
                        <mxPoint x="1058.75" y="1173.96" as="targetPoint"/>
                    </mxGeometry>
                </mxCell>
                <mxCell id="226" value="" style="html=1;rounded=0;fontSize=9;fontColor=#000000;strokeColor=#000000;" parent="1" vertex="1">
                    <mxGeometry x="1070.25" y="1146" width="19" height="20" as="geometry"/>
                </mxCell>
                <mxCell id="227" value="" style="endArrow=none;html=1;rounded=0;align=center;verticalAlign=top;endFill=0;labelBackgroundColor=none;endSize=2;fontSize=9;fontColor=#000000;exitX=0.75;exitY=1;exitDx=0;exitDy=0;strokeColor=#000000;" parent="1" source="220" target="228" edge="1">
                    <mxGeometry relative="1" as="geometry">
                        <mxPoint x="997.5" y="1068" as="sourcePoint"/>
                    </mxGeometry>
                </mxCell>
                <mxCell id="228" value="" style="ellipse;html=1;fontSize=11;align=center;fillColor=none;points=[];aspect=fixed;resizable=0;verticalAlign=bottom;labelPosition=center;verticalLabelPosition=top;flipH=1;fontColor=#000000;strokeColor=#000000;" parent="1" vertex="1">
                    <mxGeometry x="994.75" y="1086" width="8" height="8" as="geometry"/>
                </mxCell>
                <mxCell id="229" value="" style="endArrow=none;html=1;rounded=0;align=center;verticalAlign=top;endFill=0;labelBackgroundColor=none;endSize=2;fontSize=9;fontColor=#000000;exitX=0.501;exitY=1.002;exitDx=0;exitDy=0;exitPerimeter=0;strokeColor=#000000;" parent="1" source="228" target="230" edge="1">
                    <mxGeometry relative="1" as="geometry">
                        <mxPoint x="949.8699999999999" y="1136.064" as="sourcePoint"/>
                        <mxPoint x="985.25" y="1135.96" as="targetPoint"/>
                    </mxGeometry>
                </mxCell>
                <mxCell id="230" value="" style="html=1;rounded=0;fontSize=9;fontColor=#000000;strokeColor=#000000;" parent="1" vertex="1">
                    <mxGeometry x="989.25" y="1119" width="19" height="20" as="geometry"/>
                </mxCell>
                <mxCell id="240" value="" style="html=1;rounded=0;fontSize=9;fontColor=#000000;strokeColor=#000000;" parent="1" vertex="1">
                    <mxGeometry x="740" y="628" width="20" height="20" as="geometry"/>
                </mxCell>
                <mxCell id="241" value="" style="endArrow=none;html=1;rounded=0;align=center;verticalAlign=top;endFill=0;labelBackgroundColor=none;endSize=2;fontSize=9;fontColor=#000000;strokeColor=#000000;" parent="1" source="240" target="242" edge="1">
                    <mxGeometry relative="1" as="geometry"/>
                </mxCell>
                <mxCell id="242" value="" style="ellipse;html=1;fontSize=11;align=center;fillColor=none;points=[];aspect=fixed;resizable=0;verticalAlign=bottom;labelPosition=center;verticalLabelPosition=top;flipH=1;fontColor=#000000;strokeColor=#000000;" parent="1" vertex="1">
                    <mxGeometry x="746" y="655" width="8" height="8" as="geometry"/>
                </mxCell>
                <mxCell id="243" value="" style="html=1;rounded=0;fontSize=9;fontColor=#000000;strokeColor=#000000;" parent="1" vertex="1">
                    <mxGeometry x="740" y="670" width="20" height="20" as="geometry"/>
                </mxCell>
                <mxCell id="244" value="" style="endArrow=none;html=1;rounded=0;align=center;verticalAlign=top;endFill=0;labelBackgroundColor=none;endSize=2;fontSize=9;fontColor=#000000;entryX=0.5;entryY=0;entryDx=0;entryDy=0;exitX=0.498;exitY=0.997;exitDx=0;exitDy=0;exitPerimeter=0;strokeColor=#000000;" parent="1" source="242" target="243" edge="1">
                    <mxGeometry relative="1" as="geometry">
                        <mxPoint x="749.9" y="602" as="sourcePoint"/>
                        <mxPoint x="750" y="661" as="targetPoint"/>
                    </mxGeometry>
                </mxCell>
                <mxCell id="245" value="" style="endArrow=none;html=1;rounded=0;align=center;verticalAlign=top;endFill=0;labelBackgroundColor=none;endSize=2;fontSize=9;fontColor=#000000;entryX=0.501;entryY=0.995;entryDx=0;entryDy=0;entryPerimeter=0;exitX=0.5;exitY=0;exitDx=0;exitDy=0;strokeColor=#000000;" parent="1" source="240" target="246" edge="1">
                    <mxGeometry relative="1" as="geometry">
                        <mxPoint x="750.5" y="627.5" as="sourcePoint"/>
                    </mxGeometry>
                </mxCell>
                <mxCell id="246" value="" style="ellipse;html=1;fontSize=11;align=center;fillColor=none;points=[];aspect=fixed;resizable=0;verticalAlign=bottom;labelPosition=center;verticalLabelPosition=top;flipH=1;fontColor=#000000;strokeColor=#000000;" parent="1" vertex="1">
                    <mxGeometry x="746" y="583" width="8" height="8" as="geometry"/>
                </mxCell>
                <mxCell id="247" value="" style="endArrow=none;html=1;rounded=0;align=center;verticalAlign=top;endFill=0;labelBackgroundColor=none;endSize=2;fontSize=9;fontColor=#000000;entryX=1.05;entryY=0.517;entryDx=0;entryDy=0;entryPerimeter=0;exitX=1;exitY=0.5;exitDx=0;exitDy=0;strokeColor=#000000;" parent="1" source="249" target="248" edge="1">
                    <mxGeometry relative="1" as="geometry">
                        <mxPoint x="768.2499999999999" y="435" as="sourcePoint"/>
                        <Array as="points">
                            <mxPoint x="750" y="544"/>
                        </Array>
                    </mxGeometry>
                </mxCell>
                <mxCell id="248" value="" style="shape=requiredInterface;html=1;fontSize=11;align=center;fillColor=none;points=[];aspect=fixed;resizable=0;verticalAlign=bottom;labelPosition=center;verticalLabelPosition=top;flipH=1;fontColor=#000000;rotation=90;strokeColor=#000000;" parent="1" vertex="1">
                    <mxGeometry x="747.5" y="577" width="5" height="10" as="geometry"/>
                </mxCell>
                <mxCell id="249" value="" style="html=1;rounded=0;fontSize=9;fontColor=#000000;strokeColor=#000000;" parent="1" vertex="1">
                    <mxGeometry x="699.5" y="534" width="19" height="20" as="geometry"/>
                </mxCell>
                <mxCell id="250" value="" style="endArrow=none;html=1;rounded=0;align=center;verticalAlign=top;endFill=0;labelBackgroundColor=none;endSize=2;fontSize=9;fontColor=#000000;entryX=0.073;entryY=0.486;entryDx=0;entryDy=0;entryPerimeter=0;strokeColor=#000000;" parent="1" source="249" target="252" edge="1">
                    <mxGeometry relative="1" as="geometry">
                        <mxPoint x="703" y="544" as="targetPoint"/>
                    </mxGeometry>
                </mxCell>
                <mxCell id="251" value="" style="endArrow=none;html=1;rounded=0;align=center;verticalAlign=top;endFill=0;labelBackgroundColor=none;endSize=2;fontSize=9;fontColor=#000000;exitX=1;exitY=0.5;exitDx=0;exitDy=0;strokeColor=#000000;" parent="1" source="253" target="252" edge="1">
                    <mxGeometry relative="1" as="geometry">
                        <mxPoint x="677.5" y="544" as="sourcePoint"/>
                    </mxGeometry>
                </mxCell>
                <mxCell id="252" value="" style="ellipse;html=1;fontSize=11;align=center;fillColor=none;points=[];aspect=fixed;resizable=0;verticalAlign=bottom;labelPosition=center;verticalLabelPosition=top;flipH=1;fontColor=#000000;strokeColor=#000000;" parent="1" vertex="1">
                    <mxGeometry x="683.5" y="540" width="8" height="8" as="geometry"/>
                </mxCell>
                <mxCell id="253" value="" style="html=1;rounded=0;fontSize=9;fontColor=#000000;strokeColor=#000000;" parent="1" vertex="1">
                    <mxGeometry x="656" y="534" width="20" height="20" as="geometry"/>
                </mxCell>
                <mxCell id="254" value="&lt;font style=&quot;font-size: 9px;&quot;&gt;User Type&lt;/font&gt;" style="text;html=1;strokeColor=none;fillColor=none;align=center;verticalAlign=middle;whiteSpace=wrap;rounded=0;fontColor=#000000;" parent="1" vertex="1">
                    <mxGeometry x="754" y="571" width="50" height="26" as="geometry"/>
                </mxCell>
                <mxCell id="255" value="" style="html=1;rounded=0;fontSize=9;fontColor=#000000;strokeColor=#000000;" parent="1" vertex="1">
                    <mxGeometry x="523.5" y="534" width="19" height="20" as="geometry"/>
                </mxCell>
                <mxCell id="256" value="" style="endArrow=none;html=1;rounded=0;align=center;verticalAlign=top;endFill=0;labelBackgroundColor=none;endSize=2;fontSize=9;fontColor=#000000;entryX=0.073;entryY=0.486;entryDx=0;entryDy=0;entryPerimeter=0;strokeColor=#000000;" parent="1" source="255" target="258" edge="1">
                    <mxGeometry relative="1" as="geometry">
                        <mxPoint x="527" y="544" as="targetPoint"/>
                    </mxGeometry>
                </mxCell>
                <mxCell id="257" value="" style="endArrow=none;html=1;rounded=0;align=center;verticalAlign=top;endFill=0;labelBackgroundColor=none;endSize=2;fontSize=9;fontColor=#000000;exitX=1;exitY=0.5;exitDx=0;exitDy=0;strokeColor=#000000;" parent="1" source="259" target="258" edge="1">
                    <mxGeometry relative="1" as="geometry">
                        <mxPoint x="501.5" y="544" as="sourcePoint"/>
                    </mxGeometry>
                </mxCell>
                <mxCell id="258" value="" style="ellipse;html=1;fontSize=11;align=center;fillColor=none;points=[];aspect=fixed;resizable=0;verticalAlign=bottom;labelPosition=center;verticalLabelPosition=top;flipH=1;fontColor=#000000;strokeColor=#000000;" parent="1" vertex="1">
                    <mxGeometry x="507.5" y="540" width="8" height="8" as="geometry"/>
                </mxCell>
                <mxCell id="259" value="" style="html=1;rounded=0;fontSize=9;fontColor=#000000;strokeColor=#000000;" parent="1" vertex="1">
                    <mxGeometry x="480" y="534" width="20" height="20" as="geometry"/>
                </mxCell>
                <mxCell id="264" value="" style="html=1;rounded=0;fontSize=9;fontColor=#000000;strokeColor=#000000;" parent="1" vertex="1">
                    <mxGeometry x="617" y="491" width="20" height="20" as="geometry"/>
                </mxCell>
                <mxCell id="265" value="" style="endArrow=none;html=1;rounded=0;align=center;verticalAlign=top;endFill=0;labelBackgroundColor=none;endSize=2;fontSize=9;fontColor=#000000;exitX=0.5;exitY=0;exitDx=0;exitDy=0;strokeColor=#000000;" parent="1" source="264" target="266" edge="1">
                    <mxGeometry relative="1" as="geometry"/>
                </mxCell>
                <mxCell id="266" value="" style="ellipse;html=1;fontSize=11;align=center;fillColor=none;points=[];aspect=fixed;resizable=0;verticalAlign=bottom;labelPosition=center;verticalLabelPosition=top;flipH=1;fontColor=#000000;strokeColor=#000000;" parent="1" vertex="1">
                    <mxGeometry x="623" y="473" width="8" height="8" as="geometry"/>
                </mxCell>
                <mxCell id="267" value="" style="endArrow=none;html=1;rounded=0;align=center;verticalAlign=top;endFill=0;labelBackgroundColor=none;endSize=2;fontSize=9;fontColor=#000000;exitX=0.496;exitY=-0.003;exitDx=0;exitDy=0;exitPerimeter=0;entryX=0.5;entryY=1;entryDx=0;entryDy=0;strokeColor=#000000;" parent="1" source="266" target="268" edge="1">
                    <mxGeometry relative="1" as="geometry">
                        <mxPoint x="626.9000000000001" y="545" as="sourcePoint"/>
                        <mxPoint x="645.5" y="422" as="targetPoint"/>
                    </mxGeometry>
                </mxCell>
                <mxCell id="268" value="" style="html=1;rounded=0;fontSize=9;fontColor=#000000;strokeColor=#000000;" parent="1" vertex="1">
                    <mxGeometry x="617" y="444" width="20" height="20" as="geometry"/>
                </mxCell>
                <mxCell id="269" value="" style="html=1;rounded=0;fontSize=9;fontColor=#000000;strokeColor=#000000;" parent="1" vertex="1">
                    <mxGeometry x="629.25" y="1074" width="20" height="20" as="geometry"/>
                </mxCell>
                <mxCell id="270" value="" style="html=1;rounded=0;fontSize=9;fontColor=#000000;strokeColor=#000000;" parent="1" vertex="1">
                    <mxGeometry x="666.5" y="1074" width="19" height="20" as="geometry"/>
                </mxCell>
                <mxCell id="271" value="" style="endArrow=none;html=1;rounded=0;align=center;verticalAlign=top;endFill=0;labelBackgroundColor=none;endSize=2;fontSize=9;fontColor=#000000;entryX=0.073;entryY=0.486;entryDx=0;entryDy=0;entryPerimeter=0;strokeColor=#000000;" parent="1" source="270" target="273" edge="1">
                    <mxGeometry relative="1" as="geometry">
                        <mxPoint x="663.75" y="1107" as="targetPoint"/>
                    </mxGeometry>
                </mxCell>
                <mxCell id="272" value="" style="endArrow=none;html=1;rounded=0;align=center;verticalAlign=top;endFill=0;labelBackgroundColor=none;endSize=2;fontSize=9;fontColor=#000000;exitX=1;exitY=0.5;exitDx=0;exitDy=0;strokeColor=#000000;" parent="1" source="269" target="273" edge="1">
                    <mxGeometry relative="1" as="geometry">
                        <mxPoint x="647.5" y="1087" as="sourcePoint"/>
                    </mxGeometry>
                </mxCell>
                <mxCell id="273" value="" style="ellipse;html=1;fontSize=11;align=center;fillColor=none;points=[];aspect=fixed;resizable=0;verticalAlign=bottom;labelPosition=center;verticalLabelPosition=top;flipH=1;fontColor=#000000;strokeColor=#000000;" parent="1" vertex="1">
                    <mxGeometry x="654.5" y="1080" width="8" height="8" as="geometry"/>
                </mxCell>
                <mxCell id="274" value="" style="html=1;rounded=0;fontSize=9;fontColor=#000000;strokeColor=#000000;" parent="1" vertex="1">
                    <mxGeometry x="723.5" y="931" width="20" height="20" as="geometry"/>
                </mxCell>
                <mxCell id="275" value="" style="endArrow=none;html=1;rounded=0;align=center;verticalAlign=top;endFill=0;labelBackgroundColor=none;endSize=2;fontSize=9;fontColor=#000000;strokeColor=#000000;" parent="1" source="274" target="276" edge="1">
                    <mxGeometry relative="1" as="geometry"/>
                </mxCell>
                <mxCell id="276" value="" style="ellipse;html=1;fontSize=11;align=center;fillColor=none;points=[];aspect=fixed;resizable=0;verticalAlign=bottom;labelPosition=center;verticalLabelPosition=top;flipH=1;fontColor=#000000;strokeColor=#000000;" parent="1" vertex="1">
                    <mxGeometry x="729.5" y="1021" width="8" height="8" as="geometry"/>
                </mxCell>
                <mxCell id="277" value="" style="endArrow=none;html=1;rounded=0;align=center;verticalAlign=top;endFill=0;labelBackgroundColor=none;endSize=2;fontSize=9;fontColor=#000000;entryX=1.05;entryY=0.517;entryDx=0;entryDy=0;entryPerimeter=0;exitX=1;exitY=0.5;exitDx=0;exitDy=0;strokeColor=#000000;" parent="1" source="270" target="278" edge="1">
                    <mxGeometry relative="1" as="geometry">
                        <mxPoint x="752.5" y="1042" as="sourcePoint"/>
                        <Array as="points">
                            <mxPoint x="734" y="1084"/>
                        </Array>
                    </mxGeometry>
                </mxCell>
                <mxCell id="278" value="" style="shape=requiredInterface;html=1;fontSize=11;align=center;fillColor=none;points=[];aspect=fixed;resizable=0;verticalAlign=bottom;labelPosition=center;verticalLabelPosition=top;flipH=1;fontColor=#000000;rotation=-90;strokeColor=#000000;" parent="1" vertex="1">
                    <mxGeometry x="731" y="1024" width="5" height="10" as="geometry"/>
                </mxCell>
                <mxCell id="279" value="&lt;font style=&quot;font-size: 9px;&quot;&gt;User Type&lt;/font&gt;" style="text;html=1;strokeColor=none;fillColor=none;align=center;verticalAlign=middle;whiteSpace=wrap;rounded=0;fontColor=#000000;" parent="1" vertex="1">
                    <mxGeometry x="681" y="1012" width="50" height="26" as="geometry"/>
                </mxCell>
                <mxCell id="280" value="" style="html=1;rounded=0;fontSize=9;fontColor=#000000;strokeColor=#000000;" parent="1" vertex="1">
                    <mxGeometry x="723.5" y="769" width="20" height="20" as="geometry"/>
                </mxCell>
                <mxCell id="281" value="" style="endArrow=none;html=1;rounded=0;align=center;verticalAlign=top;endFill=0;labelBackgroundColor=none;endSize=2;fontSize=9;fontColor=#000000;strokeColor=#000000;" parent="1" source="280" target="282" edge="1">
                    <mxGeometry relative="1" as="geometry"/>
                </mxCell>
                <mxCell id="282" value="" style="ellipse;html=1;fontSize=11;align=center;fillColor=none;points=[];aspect=fixed;resizable=0;verticalAlign=bottom;labelPosition=center;verticalLabelPosition=top;flipH=1;fontColor=#000000;strokeColor=#000000;" parent="1" vertex="1">
                    <mxGeometry x="729.5" y="855" width="8" height="8" as="geometry"/>
                </mxCell>
                <mxCell id="283" value="" style="endArrow=none;html=1;rounded=0;align=center;verticalAlign=top;endFill=0;labelBackgroundColor=none;endSize=2;fontSize=9;fontColor=#000000;entryX=0.5;entryY=0;entryDx=0;entryDy=0;strokeColor=#000000;" parent="1" target="274" edge="1">
                    <mxGeometry relative="1" as="geometry">
                        <mxPoint x="733.4" y="863" as="sourcePoint"/>
                        <mxPoint x="733.4999999999999" y="931" as="targetPoint"/>
                    </mxGeometry>
                </mxCell>
                <mxCell id="284" value="" style="html=1;rounded=0;fontSize=9;fontColor=#000000;strokeColor=#000000;" parent="1" vertex="1">
                    <mxGeometry x="459.25" y="1074" width="20" height="20" as="geometry"/>
                </mxCell>
                <mxCell id="285" value="" style="html=1;rounded=0;fontSize=9;fontColor=#000000;strokeColor=#000000;" parent="1" vertex="1">
                    <mxGeometry x="496.5" y="1074" width="19" height="20" as="geometry"/>
                </mxCell>
                <mxCell id="286" value="" style="endArrow=none;html=1;rounded=0;align=center;verticalAlign=top;endFill=0;labelBackgroundColor=none;endSize=2;fontSize=9;fontColor=#000000;entryX=0.073;entryY=0.486;entryDx=0;entryDy=0;entryPerimeter=0;strokeColor=#000000;" parent="1" source="285" target="288" edge="1">
                    <mxGeometry relative="1" as="geometry">
                        <mxPoint x="493.75" y="1107" as="targetPoint"/>
                    </mxGeometry>
                </mxCell>
                <mxCell id="287" value="" style="endArrow=none;html=1;rounded=0;align=center;verticalAlign=top;endFill=0;labelBackgroundColor=none;endSize=2;fontSize=9;fontColor=#000000;exitX=1;exitY=0.5;exitDx=0;exitDy=0;strokeColor=#000000;" parent="1" source="284" target="288" edge="1">
                    <mxGeometry relative="1" as="geometry">
                        <mxPoint x="477.5" y="1087" as="sourcePoint"/>
                    </mxGeometry>
                </mxCell>
                <mxCell id="288" value="" style="ellipse;html=1;fontSize=11;align=center;fillColor=none;points=[];aspect=fixed;resizable=0;verticalAlign=bottom;labelPosition=center;verticalLabelPosition=top;flipH=1;fontColor=#000000;strokeColor=#000000;" parent="1" vertex="1">
                    <mxGeometry x="484.5" y="1080" width="8" height="8" as="geometry"/>
                </mxCell>
                <mxCell id="297" value="" style="html=1;rounded=0;fontSize=9;fontColor=#000000;strokeColor=#000000;" parent="1" vertex="1">
                    <mxGeometry x="459.25" y="1190" width="20" height="20" as="geometry"/>
                </mxCell>
                <mxCell id="298" value="" style="endArrow=none;html=1;rounded=0;align=center;verticalAlign=top;endFill=0;labelBackgroundColor=none;endSize=2;fontSize=9;fontColor=#000000;entryX=0.288;entryY=0.072;entryDx=0;entryDy=0;entryPerimeter=0;exitX=0.25;exitY=1;exitDx=0;exitDy=0;strokeColor=#000000;" parent="1" source="285" target="300" edge="1">
                    <mxGeometry relative="1" as="geometry">
                        <mxPoint x="493.75" y="1223" as="targetPoint"/>
                        <mxPoint x="496.5" y="1199.9244532803182" as="sourcePoint"/>
                    </mxGeometry>
                </mxCell>
                <mxCell id="299" value="" style="endArrow=none;html=1;rounded=0;align=center;verticalAlign=top;endFill=0;labelBackgroundColor=none;endSize=2;fontSize=9;fontColor=#000000;exitX=1;exitY=0.5;exitDx=0;exitDy=0;strokeColor=#000000;" parent="1" source="297" target="300" edge="1">
                    <mxGeometry relative="1" as="geometry">
                        <mxPoint x="477.5" y="1203" as="sourcePoint"/>
                    </mxGeometry>
                </mxCell>
                <mxCell id="300" value="" style="ellipse;html=1;fontSize=11;align=center;fillColor=none;points=[];aspect=fixed;resizable=0;verticalAlign=bottom;labelPosition=center;verticalLabelPosition=top;flipH=1;fontColor=#000000;strokeColor=#000000;" parent="1" vertex="1">
                    <mxGeometry x="484.5" y="1147" width="8" height="8" as="geometry"/>
                </mxCell>
                <mxCell id="303" value="" style="endArrow=none;html=1;rounded=0;align=center;verticalAlign=top;endFill=0;labelBackgroundColor=none;endSize=2;fontSize=9;fontColor=#FFFFFF;entryX=0.486;entryY=0.015;entryDx=0;entryDy=0;entryPerimeter=0;exitX=0.5;exitY=1;exitDx=0;exitDy=0;strokeColor=#FFFFFF;" parent="1" target="305" edge="1">
                    <mxGeometry relative="1" as="geometry">
                        <mxPoint x="967.5" y="343" as="targetPoint"/>
                        <mxPoint x="922" y="334" as="sourcePoint"/>
                    </mxGeometry>
                </mxCell>
                <mxCell id="304" value="" style="endArrow=none;html=1;rounded=0;align=center;verticalAlign=top;endFill=0;labelBackgroundColor=none;endSize=2;fontSize=9;fontColor=#FFFFFF;exitX=0.5;exitY=0;exitDx=0;exitDy=0;entryX=0.523;entryY=1.016;entryDx=0;entryDy=0;entryPerimeter=0;strokeColor=#FFFFFF;" parent="1" source="301" edge="1">
                    <mxGeometry relative="1" as="geometry">
                        <mxPoint x="924.9999999999999" y="347" as="sourcePoint"/>
                        <mxPoint x="921.816" y="346.12800000000004" as="targetPoint"/>
                    </mxGeometry>
                </mxCell>
                <mxCell id="306" value="" style="endArrow=none;html=1;rounded=0;align=center;verticalAlign=top;endFill=0;labelBackgroundColor=none;endSize=2;fontSize=9;fontColor=#FFFFFF;exitX=0.5;exitY=0;exitDx=0;exitDy=0;strokeColor=#FFFFFF;" parent="1" source="232" edge="1">
                    <mxGeometry relative="1" as="geometry">
                        <mxPoint x="957.5" y="333" as="sourcePoint"/>
                        <mxPoint x="921.7897646682027" y="384.99447130415024" as="targetPoint"/>
                    </mxGeometry>
                </mxCell>
                <mxCell id="314" value="" style="endArrow=none;html=1;rounded=0;align=center;verticalAlign=top;endFill=0;labelBackgroundColor=none;endSize=2;fontSize=9;fontColor=#000000;entryX=0;entryY=0.5;entryDx=0;entryDy=0;strokeColor=#000000;exitX=1.008;exitY=0.475;exitDx=0;exitDy=0;exitPerimeter=0;" parent="1" source="193" target="179" edge="1">
                    <mxGeometry relative="1" as="geometry">
                        <mxPoint x="620" y="320" as="sourcePoint"/>
                        <mxPoint x="837.79" y="207.04" as="targetPoint"/>
                        <Array as="points">
                            <mxPoint x="627" y="237"/>
                        </Array>
                    </mxGeometry>
                </mxCell>
                <mxCell id="316" value="" style="endArrow=none;html=1;rounded=0;align=center;verticalAlign=top;endFill=0;labelBackgroundColor=none;endSize=2;fontSize=9;fontColor=#000000;exitX=0.5;exitY=0;exitDx=0;exitDy=0;strokeColor=#000000;" edge="1" parent="1" source="318" target="317">
                    <mxGeometry relative="1" as="geometry">
                        <mxPoint x="959" y="442.87531609492055" as="sourcePoint"/>
                    </mxGeometry>
                </mxCell>
                <mxCell id="317" value="" style="ellipse;html=1;fontSize=11;align=center;fillColor=none;points=[];aspect=fixed;resizable=0;verticalAlign=bottom;labelPosition=center;verticalLabelPosition=top;flipH=1;fontColor=#000000;strokeColor=#000000;" vertex="1" parent="1">
                    <mxGeometry x="909.5" y="413" width="8" height="8" as="geometry"/>
                </mxCell>
                <mxCell id="318" value="" style="html=1;rounded=0;fontSize=9;fontColor=#000000;strokeColor=#000000;" vertex="1" parent="1">
                    <mxGeometry x="904" y="428" width="19" height="20" as="geometry"/>
                </mxCell>
                <mxCell id="319" value="" style="endArrow=none;html=1;rounded=0;align=center;verticalAlign=top;endFill=0;labelBackgroundColor=none;endSize=2;fontSize=9;fontColor=#000000;exitX=0.498;exitY=0.014;exitDx=0;exitDy=0;exitPerimeter=0;strokeColor=#000000;entryX=0.5;entryY=1;entryDx=0;entryDy=0;" edge="1" parent="1" source="317" target="320">
                    <mxGeometry relative="1" as="geometry">
                        <mxPoint x="939.6199999999999" y="434.0640000000001" as="sourcePoint"/>
                        <mxPoint x="975" y="433.96000000000004" as="targetPoint"/>
                    </mxGeometry>
                </mxCell>
                <mxCell id="320" value="" style="html=1;rounded=0;fontSize=9;fontColor=#000000;strokeColor=#000000;" vertex="1" parent="1">
                    <mxGeometry x="904" y="386" width="19" height="20" as="geometry"/>
                </mxCell>
                <mxCell id="321" value="" style="endArrow=none;html=1;rounded=0;align=center;verticalAlign=top;endFill=0;labelBackgroundColor=none;endSize=2;fontSize=9;fontColor=#000000;exitX=0.5;exitY=0;exitDx=0;exitDy=0;strokeColor=#000000;" edge="1" parent="1" target="322">
                    <mxGeometry relative="1" as="geometry">
                        <mxPoint x="913.37" y="386" as="sourcePoint"/>
                    </mxGeometry>
                </mxCell>
                <mxCell id="322" value="" style="ellipse;html=1;fontSize=11;align=center;fillColor=none;points=[];aspect=fixed;resizable=0;verticalAlign=bottom;labelPosition=center;verticalLabelPosition=top;flipH=1;fontColor=#000000;strokeColor=#000000;" vertex="1" parent="1">
                    <mxGeometry x="909.5" y="358" width="8" height="8" as="geometry"/>
                </mxCell>
                <mxCell id="323" value="" style="shape=requiredInterface;html=1;fontSize=11;align=center;fillColor=none;points=[];aspect=fixed;resizable=0;verticalAlign=bottom;labelPosition=center;verticalLabelPosition=top;flipH=1;fontColor=#000000;rotation=90;strokeColor=#000000;" vertex="1" parent="1">
                    <mxGeometry x="911" y="352" width="5" height="10" as="geometry"/>
                </mxCell>
                <mxCell id="324" value="" style="endArrow=none;html=1;rounded=0;align=center;verticalAlign=top;endFill=0;labelBackgroundColor=none;endSize=2;fontSize=9;fontColor=#000000;strokeColor=#000000;exitX=1.008;exitY=0.475;exitDx=0;exitDy=0;exitPerimeter=0;entryX=1;entryY=0.5;entryDx=0;entryDy=0;" edge="1" parent="1" source="323" target="330">
                    <mxGeometry relative="1" as="geometry">
                        <mxPoint x="913.37" y="262" as="sourcePoint"/>
                        <mxPoint x="1090" y="330" as="targetPoint"/>
                        <Array as="points">
                            <mxPoint x="914" y="330"/>
                            <mxPoint x="1410" y="330"/>
                            <mxPoint x="1410" y="1042"/>
                        </Array>
                    </mxGeometry>
                </mxCell>
                <mxCell id="325" value="&lt;font style=&quot;font-size: 9px;&quot;&gt;Posts List&lt;/font&gt;" style="text;html=1;strokeColor=none;fillColor=none;align=center;verticalAlign=middle;whiteSpace=wrap;rounded=0;fontColor=#000000;" vertex="1" parent="1">
                    <mxGeometry x="848.25" y="346" width="65" height="26" as="geometry"/>
                </mxCell>
                <mxCell id="326" value="" style="endArrow=none;html=1;rounded=0;align=center;verticalAlign=top;endFill=0;labelBackgroundColor=none;endSize=2;fontSize=9;fontColor=#000000;exitX=1;exitY=0.5;exitDx=0;exitDy=0;strokeColor=#000000;" edge="1" parent="1" source="328" target="327">
                    <mxGeometry relative="1" as="geometry">
                        <mxPoint x="1260" y="1050.8753160949204" as="sourcePoint"/>
                    </mxGeometry>
                </mxCell>
                <mxCell id="327" value="" style="ellipse;html=1;fontSize=11;align=center;fillColor=none;points=[];aspect=fixed;resizable=0;verticalAlign=bottom;labelPosition=center;verticalLabelPosition=top;flipH=1;fontColor=#000000;strokeColor=#000000;" vertex="1" parent="1">
                    <mxGeometry x="1234" y="1038" width="8" height="8" as="geometry"/>
                </mxCell>
                <mxCell id="328" value="" style="html=1;rounded=0;fontSize=9;fontColor=#000000;strokeColor=#000000;" vertex="1" parent="1">
                    <mxGeometry x="1205" y="1032" width="19" height="20" as="geometry"/>
                </mxCell>
                <mxCell id="329" value="" style="endArrow=none;html=1;rounded=0;align=center;verticalAlign=top;endFill=0;labelBackgroundColor=none;endSize=2;fontSize=9;fontColor=#000000;exitX=-0.015;exitY=0.508;exitDx=0;exitDy=0;exitPerimeter=0;strokeColor=#000000;" edge="1" parent="1" source="327" target="330">
                    <mxGeometry relative="1" as="geometry">
                        <mxPoint x="1240.62" y="1042.064" as="sourcePoint"/>
                        <mxPoint x="1276" y="1041.96" as="targetPoint"/>
                    </mxGeometry>
                </mxCell>
                <mxCell id="330" value="" style="html=1;rounded=0;fontSize=9;fontColor=#000000;strokeColor=#000000;" vertex="1" parent="1">
                    <mxGeometry x="1254" y="1032" width="19" height="20" as="geometry"/>
                </mxCell>
                <mxCell id="331" value="" style="html=1;rounded=0;fontSize=9;fontColor=#000000;strokeColor=#000000;" vertex="1" parent="1">
                    <mxGeometry x="964.25" y="1212" width="20" height="20" as="geometry"/>
                </mxCell>
                <mxCell id="332" value="" style="endArrow=none;html=1;rounded=0;align=center;verticalAlign=top;endFill=0;labelBackgroundColor=none;endSize=2;fontSize=9;fontColor=#000000;strokeColor=#000000;" edge="1" parent="1" source="331" target="333">
                    <mxGeometry relative="1" as="geometry"/>
                </mxCell>
                <mxCell id="333" value="" style="ellipse;html=1;fontSize=11;align=center;fillColor=none;points=[];aspect=fixed;resizable=0;verticalAlign=bottom;labelPosition=center;verticalLabelPosition=top;flipH=1;fontColor=#000000;strokeColor=#000000;" vertex="1" parent="1">
                    <mxGeometry x="970.25" y="1236" width="8" height="8" as="geometry"/>
                </mxCell>
                <mxCell id="334" value="" style="html=1;rounded=0;fontSize=9;fontColor=#000000;strokeColor=#000000;" vertex="1" parent="1">
                    <mxGeometry x="964.25" y="1248" width="20" height="20" as="geometry"/>
                </mxCell>
                <mxCell id="335" value="" style="endArrow=none;html=1;rounded=0;align=center;verticalAlign=top;endFill=0;labelBackgroundColor=none;endSize=2;fontSize=9;fontColor=#000000;entryX=0.5;entryY=0;entryDx=0;entryDy=0;exitX=0.498;exitY=0.997;exitDx=0;exitDy=0;exitPerimeter=0;strokeColor=#000000;" edge="1" parent="1" source="333" target="334">
                    <mxGeometry relative="1" as="geometry">
                        <mxPoint x="974.15" y="1194" as="sourcePoint"/>
                        <mxPoint x="974.25" y="1253" as="targetPoint"/>
                    </mxGeometry>
                </mxCell>
                <mxCell id="336" value="" style="html=1;rounded=0;fontSize=9;fontColor=#000000;strokeColor=#000000;" vertex="1" parent="1">
                    <mxGeometry x="590" y="490.5" width="20" height="20" as="geometry"/>
                </mxCell>
                <mxCell id="337" value="" style="endArrow=none;html=1;rounded=0;align=center;verticalAlign=top;endFill=0;labelBackgroundColor=none;endSize=2;fontSize=9;fontColor=#000000;exitX=0.5;exitY=0;exitDx=0;exitDy=0;strokeColor=#000000;" edge="1" parent="1" source="336" target="338">
                    <mxGeometry relative="1" as="geometry"/>
                </mxCell>
                <mxCell id="338" value="" style="ellipse;html=1;fontSize=11;align=center;fillColor=none;points=[];aspect=fixed;resizable=0;verticalAlign=bottom;labelPosition=center;verticalLabelPosition=top;flipH=1;fontColor=#000000;strokeColor=#000000;" vertex="1" parent="1">
                    <mxGeometry x="596" y="472.5" width="8" height="8" as="geometry"/>
                </mxCell>
                <mxCell id="339" value="" style="endArrow=none;html=1;rounded=0;align=center;verticalAlign=top;endFill=0;labelBackgroundColor=none;endSize=2;fontSize=9;fontColor=#000000;exitX=0.496;exitY=-0.003;exitDx=0;exitDy=0;exitPerimeter=0;entryX=0.5;entryY=1;entryDx=0;entryDy=0;strokeColor=#000000;" edge="1" parent="1" source="338" target="340">
                    <mxGeometry relative="1" as="geometry">
                        <mxPoint x="599.9000000000001" y="544.5" as="sourcePoint"/>
                        <mxPoint x="618.5" y="421.5" as="targetPoint"/>
                    </mxGeometry>
                </mxCell>
                <mxCell id="340" value="" style="html=1;rounded=0;fontSize=9;fontColor=#000000;strokeColor=#000000;" vertex="1" parent="1">
                    <mxGeometry x="590" y="443.5" width="20" height="20" as="geometry"/>
                </mxCell>
                <mxCell id="341" value="" style="endArrow=none;html=1;rounded=0;align=center;verticalAlign=top;endFill=0;labelBackgroundColor=none;endSize=2;fontSize=9;fontColor=#000000;entryX=0.501;entryY=0.995;entryDx=0;entryDy=0;entryPerimeter=0;exitX=0.5;exitY=0;exitDx=0;exitDy=0;strokeColor=#000000;" edge="1" parent="1" target="342" source="340">
                    <mxGeometry relative="1" as="geometry">
                        <mxPoint x="599.9999999999999" y="443.5" as="sourcePoint"/>
                    </mxGeometry>
                </mxCell>
                <mxCell id="342" value="" style="ellipse;html=1;fontSize=11;align=center;fillColor=none;points=[];aspect=fixed;resizable=0;verticalAlign=bottom;labelPosition=center;verticalLabelPosition=top;flipH=1;fontColor=#000000;strokeColor=#000000;" vertex="1" parent="1">
                    <mxGeometry x="596" y="398.5" width="8" height="8" as="geometry"/>
                </mxCell>
                <mxCell id="343" value="" style="endArrow=none;html=1;rounded=0;align=center;verticalAlign=top;endFill=0;labelBackgroundColor=none;endSize=2;fontSize=9;fontColor=#000000;entryX=1.05;entryY=0.517;entryDx=0;entryDy=0;entryPerimeter=0;strokeColor=#000000;exitX=0.5;exitY=1;exitDx=0;exitDy=0;" edge="1" parent="1" target="344" source="334">
                    <mxGeometry relative="1" as="geometry">
                        <mxPoint x="568.5" y="359.5" as="sourcePoint"/>
                        <Array as="points">
                            <mxPoint x="974" y="1340"/>
                            <mxPoint x="280" y="1340"/>
                            <mxPoint x="280" y="360"/>
                            <mxPoint x="600" y="359.5"/>
                        </Array>
                    </mxGeometry>
                </mxCell>
                <mxCell id="344" value="" style="shape=requiredInterface;html=1;fontSize=11;align=center;fillColor=none;points=[];aspect=fixed;resizable=0;verticalAlign=bottom;labelPosition=center;verticalLabelPosition=top;flipH=1;fontColor=#000000;rotation=90;strokeColor=#000000;" vertex="1" parent="1">
                    <mxGeometry x="597.5" y="392.5" width="5" height="10" as="geometry"/>
                </mxCell>
                <mxCell id="345" value="&lt;font style=&quot;font-size: 9px;&quot;&gt;Feedback List&lt;/font&gt;" style="text;html=1;strokeColor=none;fillColor=none;align=center;verticalAlign=middle;whiteSpace=wrap;rounded=0;fontColor=#000000;" vertex="1" parent="1">
                    <mxGeometry x="523.5" y="386" width="65" height="26" as="geometry"/>
                </mxCell>
            </root>
        </mxGraphModel>
    </diagram>
</mxfile>